<svg width="264" height="252" viewBox="0 0 264 252" fill="none" xmlns="http://www.w3.org/2000/svg">
<g id="Facebook">
<path id="facebook" d="M132 0C204.902 0 264 56.4121 264 126C264 195.588 204.902 252 132 252C59.0984 252 3.24013e-06 195.588 0 126C0 56.4121 59.0984 1.47613e-06 132 0ZM143.842 58.8008C120.027 58.801 111.645 70.2599 111.645 89.5312V103.715H96.8008V127.338H111.645V195.885H141.359V127.334H161.184L163.811 103.711H141.359L141.393 91.8887C141.393 85.7276 142.006 82.426 151.275 82.4258H163.67V58.8008H143.842Z" fill="white"/>
</g>
</svg>
