<svg width="132" height="126" viewBox="0 0 132 126" fill="none" xmlns="http://www.w3.org/2000/svg">
<path d="M66 0C102.451 0 132 28.2061 132 63C132 97.7939 102.451 126 66 126C29.5492 126 1.62007e-06 97.7939 0 63C0 28.2061 29.5492 7.38067e-07 66 0ZM71.9209 29.4004C60.0136 29.4005 55.8223 35.13 55.8223 44.7656V51.8574H48.4004V63.6689H55.8223V97.9424H70.6797V63.667H80.5918L81.9053 51.8555H70.6797L70.6963 45.9443C70.6963 42.8638 71.0028 41.213 75.6377 41.2129H81.835V29.4004H71.9209Z" fill="white"/>
</svg>
