<svg width="132" height="126" viewBox="0 0 132 126" fill="none" xmlns="http://www.w3.org/2000/svg">
<path d="M66 0C102.451 0 132 28.2061 132 63C132 97.7939 102.451 126 66 126C29.5492 126 1.62007e-06 97.7939 0 63C0 28.2061 29.5492 7.38067e-07 66 0ZM65.9971 29.4004C56.4432 29.4004 55.2429 29.4395 51.4893 29.6025C47.7419 29.7663 45.1835 30.3332 42.9453 31.1641C40.6304 32.0222 38.6664 33.17 36.71 35.0381C34.7519 36.9057 33.5495 38.781 32.6475 40.9902C31.7748 43.1273 31.1804 45.5699 31.0117 49.1455C30.8438 52.7292 30.7998 53.8754 30.7998 63C30.7998 72.1253 30.8426 73.2675 31.0127 76.8516C31.185 80.4285 31.7787 82.8704 32.6484 85.0068C33.5482 87.2166 34.7509 89.0915 36.708 90.959C38.6637 92.8278 40.6278 93.9787 42.9414 94.8369C45.181 95.6678 47.7398 96.2337 51.4863 96.3975C55.2408 96.5606 56.4401 96.6006 65.999 96.6006C75.5591 96.6006 76.7554 96.5605 80.5098 96.3975C84.2569 96.2337 86.8181 95.6677 89.0576 94.8369C91.3719 93.9787 93.3333 92.8279 95.2891 90.959C97.2471 89.0914 98.4496 87.2161 99.3516 85.0068C100.217 82.8698 100.811 80.4278 100.987 76.8525C101.156 73.2685 101.2 72.1253 101.2 63C101.2 53.875 101.156 52.7295 100.987 49.1455C100.811 45.5688 100.217 43.1275 99.3516 40.9912C98.4496 38.7813 97.2471 36.9057 95.2891 35.0381C93.3312 33.1693 91.3729 32.0215 89.0557 31.1641C86.8117 30.3332 84.2522 29.7663 80.5049 29.6025C76.751 29.4395 75.5552 29.4004 65.9971 29.4004ZM62.8457 35.4551C63.7828 35.4537 64.8292 35.4551 66.0039 35.4551C75.4017 35.4551 76.5162 35.4865 80.2275 35.6475C83.659 35.7973 85.5219 36.3448 86.7627 36.8047C88.4053 37.4137 89.5764 38.1424 90.8076 39.3184C92.0395 40.4942 92.803 41.6139 93.4424 43.1816C93.9242 44.3646 94.4981 46.1433 94.6543 49.4189C94.823 52.9609 94.8594 54.0256 94.8594 62.9922C94.8594 71.9589 94.8229 73.0237 94.6543 76.5654C94.4974 79.841 93.9241 81.6197 93.4424 82.8027C92.8045 84.3705 92.0394 85.487 90.8076 86.6621C89.5757 87.838 88.4059 88.5668 86.7627 89.1758C85.5234 89.6377 83.659 90.1832 80.2275 90.333C76.5169 90.494 75.4017 90.5293 66.0039 90.5293C56.6049 90.5293 55.4898 90.494 51.7793 90.333C48.3476 90.1818 46.4847 89.6347 45.2432 89.1748C43.6005 88.5658 42.4273 87.8371 41.1953 86.6611C39.9635 85.4853 39.2009 84.3683 38.5615 82.7998C38.0797 81.6168 37.5048 79.8383 37.3486 76.5625C37.18 73.0209 37.1465 71.9556 37.1465 62.9834C37.1465 54.0119 37.18 52.9527 37.3486 49.4111C37.5056 46.1354 38.0797 44.3562 38.5615 43.1719C39.1994 41.6044 39.9636 40.4843 41.1953 39.3086C42.4271 38.1328 43.6007 37.4043 45.2432 36.7939C46.4839 36.332 48.3478 35.7862 51.7793 35.6357C55.0263 35.4958 56.2855 35.4533 62.8457 35.4463V35.4551ZM66.0029 45.7451C56.0203 45.7454 47.927 53.4712 47.9268 63C47.9268 72.5292 56.0209 80.252 66.0039 80.252C75.9865 80.2515 84.0771 72.529 84.0771 63C84.0769 53.4712 75.9855 45.7454 66.0029 45.7451ZM66.0029 51.7998C72.4826 51.7998 77.7361 56.8142 77.7363 63C77.7363 69.1853 72.4827 74.2002 66.0029 74.2002C59.5225 74.2 54.2695 69.1852 54.2695 63C54.2697 56.8143 59.5226 51.8 66.0029 51.7998ZM84.793 41.0332C82.4612 41.0333 80.5696 42.838 80.5693 45.0645C80.5695 47.2903 82.4612 49.0966 84.793 49.0967C87.1247 49.0965 89.0174 47.2902 89.0176 45.0645C89.0173 42.8387 87.1247 41.0324 84.793 41.0322V41.0332Z" fill="white"/>
</svg>
