<svg width="264" height="252" viewBox="0 0 264 252" fill="none" xmlns="http://www.w3.org/2000/svg">
<g id="Instagram">
<path id="instagram" d="M132 0C204.902 0 264 56.4121 264 126C264 195.588 204.902 252 132 252C59.0984 252 3.24013e-06 195.588 0 126C0 56.4121 59.0984 1.47613e-06 132 0ZM131.994 58.8008C112.886 58.8008 110.486 58.879 102.979 59.2051C95.4838 59.5327 90.3669 60.6663 85.8906 62.3281C81.2607 64.0445 77.3327 66.3399 73.4199 70.0762C69.5039 73.8114 67.0989 77.562 65.2949 81.9805C63.5496 86.2547 62.3608 91.1399 62.0234 98.291C61.6876 105.458 61.5996 107.751 61.5996 126C61.5996 144.251 61.6851 146.535 62.0254 153.703C62.3701 160.857 63.5574 165.741 65.2969 170.014C67.0965 174.433 69.5017 178.183 73.416 181.918C77.3275 185.656 81.2557 187.957 85.8828 189.674C90.3619 191.336 95.4797 192.467 102.973 192.795C110.482 193.121 112.88 193.201 131.998 193.201C151.118 193.201 153.511 193.121 161.02 192.795C168.514 192.467 173.636 191.335 178.115 189.674C182.744 187.957 186.667 185.656 190.578 181.918C194.494 178.183 196.899 174.432 198.703 170.014C200.434 165.74 201.623 160.856 201.975 153.705C202.312 146.537 202.4 144.251 202.4 126C202.4 107.75 202.312 105.459 201.975 98.291C201.623 91.1376 200.434 86.255 198.703 81.9824C196.899 77.5626 194.494 73.8114 190.578 70.0762C186.662 66.3385 182.746 64.043 178.111 62.3281C173.623 60.6664 168.504 59.5327 161.01 59.2051C153.502 58.8789 151.11 58.8008 131.994 58.8008ZM125.691 70.9102C127.566 70.9074 129.658 70.9102 132.008 70.9102C150.803 70.9102 153.032 70.9729 160.455 71.2949C167.318 71.5946 171.044 72.6896 173.525 73.6094C176.811 74.8273 179.153 76.2848 181.615 78.6367C184.079 80.9885 185.606 83.2278 186.885 86.3633C187.848 88.7292 188.996 92.2866 189.309 98.8379C189.646 105.922 189.719 108.051 189.719 125.984C189.719 143.918 189.646 146.047 189.309 153.131C188.995 159.682 187.848 163.239 186.885 165.605C185.609 168.741 184.079 170.974 181.615 173.324C179.151 175.676 176.812 177.134 173.525 178.352C171.047 179.275 167.318 180.366 160.455 180.666C153.034 180.988 150.803 181.059 132.008 181.059C113.21 181.059 110.98 180.988 103.559 180.666C96.6951 180.364 92.9694 179.269 90.4863 178.35C87.201 177.132 84.8546 175.674 82.3906 173.322C79.927 170.971 78.4019 168.737 77.123 165.6C76.1595 163.234 75.0096 159.677 74.6973 153.125C74.36 146.042 74.293 143.911 74.293 125.967C74.293 108.024 74.36 105.905 74.6973 98.8223C75.0112 92.2708 76.1595 88.7125 77.123 86.3438C78.3989 83.2088 79.9273 80.9686 82.3906 78.6172C84.8543 76.2657 87.2015 74.8086 90.4863 73.5879C92.9679 72.664 96.6956 71.5725 103.559 71.2715C110.053 70.9915 112.571 70.9066 125.691 70.8926V70.9102ZM132.006 91.4902C112.041 91.4908 95.854 106.942 95.8535 126C95.8535 145.058 112.042 160.504 132.008 160.504C151.973 160.503 168.154 145.058 168.154 126C168.154 106.942 151.971 91.4908 132.006 91.4902ZM132.006 103.6C144.965 103.6 155.472 113.628 155.473 126C155.473 138.371 144.965 148.4 132.006 148.4C119.045 148.4 108.539 138.37 108.539 126C108.539 113.629 119.045 103.6 132.006 103.6ZM169.586 82.0664C164.922 82.0666 161.139 85.676 161.139 90.1289C161.139 94.5805 164.922 98.1931 169.586 98.1934C174.249 98.193 178.035 94.5805 178.035 90.1289C178.035 85.6774 174.249 82.0648 169.586 82.0645V82.0664Z" fill="white"/>
</g>
</svg>
