<svg width="264" height="252" viewBox="0 0 264 252" fill="none" xmlns="http://www.w3.org/2000/svg">
<g id="Twitter">
<path id="twitter" d="M132 0C204.902 0 264 56.4121 264 126C264 195.588 204.902 252 132 252C59.0984 252 3.24013e-06 195.588 0 126C0 56.4121 59.0984 1.47613e-06 132 0ZM162.209 76.4336C157.5 75.1879 150.298 75.3654 146.051 76.7891C134.51 80.7931 127.216 91.1142 128.047 102.414L128.324 106.773L123.707 106.24C106.903 104.194 92.2225 97.2535 79.7578 85.5977L73.6641 79.8145L72.0938 84.0859C68.7703 93.6061 70.8939 103.66 77.8184 110.422C81.5115 114.159 80.6808 114.693 74.3105 112.469C72.0949 111.757 70.1558 111.224 69.9707 111.49C69.3244 112.113 71.5407 120.209 73.2949 123.412C75.6955 127.861 80.5881 132.222 85.9434 134.803L90.4688 136.848L85.1133 136.938C79.9434 136.938 79.7568 137.027 80.3105 138.895C82.1572 144.678 89.453 150.819 97.5781 153.488L103.303 155.355L98.3164 158.203C90.9299 162.296 82.2495 164.609 73.5703 164.787C69.4158 164.876 66 165.233 66 165.5C66.0064 166.392 77.2667 171.373 83.8203 173.33C103.487 179.113 126.846 176.62 144.389 166.744C156.853 159.715 169.318 145.747 175.135 132.223C178.274 125.016 181.414 111.847 181.414 105.529C181.414 101.436 181.691 100.902 186.861 96.0078C189.908 93.1605 192.77 90.046 193.324 89.1562C194.247 87.4659 194.156 87.4661 189.447 88.9785C181.599 91.6478 180.491 91.2929 184.369 87.2891C187.231 84.4418 190.646 79.2802 190.646 77.7676C190.646 77.5009 189.262 77.9456 187.693 78.7461C186.032 79.6358 182.338 80.9707 179.568 81.7715L174.582 83.2852L170.057 80.3477C167.564 78.7462 164.055 76.9674 162.209 76.4336Z" fill="white"/>
</g>
</svg>
