<svg width="132" height="126" viewBox="0 0 132 126" fill="none" xmlns="http://www.w3.org/2000/svg">
<path d="M66 0C102.451 0 132 28.2061 132 63C132 97.7939 102.451 126 66 126C29.5492 126 1.62007e-06 97.7939 0 63C0 28.2061 29.5492 7.38067e-07 66 0ZM81.1045 38.2168C78.75 37.594 75.149 37.6827 73.0254 38.3945C67.2549 40.3966 63.608 45.5571 64.0234 51.207L64.1621 53.3867L61.8535 53.1201C53.4514 52.0969 46.1112 48.6268 39.8789 42.7988L36.832 39.9072L36.0469 42.043C34.3851 46.8031 35.447 51.8299 38.9092 55.2109C40.7557 57.0794 40.3404 57.3465 37.1553 56.2344C36.0474 55.8785 35.0779 55.6118 34.9854 55.7451C34.6622 56.0565 35.7703 60.1043 36.6475 61.7061C37.8478 63.9305 40.2941 66.1112 42.9717 67.4014L45.2344 68.4238L42.5566 68.4688C39.9717 68.4688 39.8784 68.5133 40.1553 69.4473C41.0786 72.339 44.7265 75.4095 48.7891 76.7441L51.6514 77.6777L49.1582 79.1016C45.465 81.148 41.1247 82.3046 36.7852 82.3936C34.7079 82.4381 33 82.6165 33 82.75C33.0032 83.1959 38.6333 85.6866 41.9102 86.665C51.7434 89.5567 63.423 88.3102 72.1943 83.3721C78.4265 79.8576 84.6589 72.8734 87.5674 66.1113C89.137 62.5079 90.7069 55.9235 90.707 52.7646C90.707 50.7182 90.8454 50.4508 93.4307 48.0039C94.9541 46.5803 96.3851 45.023 96.6621 44.5781C97.1237 43.7329 97.0778 43.733 94.7236 44.4893C90.7996 45.8239 90.2457 45.6464 92.1846 43.6445C93.6157 42.2209 95.3232 39.6401 95.3232 38.8838C95.3231 38.7505 94.6312 38.9728 93.8467 39.373C93.0158 39.8179 91.1691 40.4853 89.7842 40.8857L87.291 41.6426L85.0283 40.1738C83.7819 39.3731 82.0277 38.4837 81.1045 38.2168Z" fill="white"/>
</svg>
